<?xml version="1.0" encoding="UTF-8" standalone="no"?>
<!DOCTYPE svg PUBLIC "-//W3C//DTD SVG 1.1//EN" "http://www.w3.org/Graphics/SVG/1.1/DTD/svg11.dtd">
<svg width="100%" height="100%" viewBox="0 0 1293 182" version="1.1" xmlns="http://www.w3.org/2000/svg" xmlns:xlink="http://www.w3.org/1999/xlink" xml:space="preserve" xmlns:serif="http://www.serif.com/" style="fill-rule:evenodd;clip-rule:evenodd;stroke-linejoin:round;stroke-miterlimit:2;">
    <g transform="matrix(1,0,0,1,-306.074,-1854.4)">
        <g transform="matrix(0.297123,0,0,0.297123,313.012,1504.18)">
            <g transform="matrix(8.96527,0,0,1.25968,-2712.93,800.82)">
                <rect x="300" y="300" width="485.252" height="485.252" style="fill:rgb(48,95,35);"/>
            </g>
            <g transform="matrix(0.744439,0,0,0.744439,165.167,740.126)">
                <text x="566.813px" y="954.692px" style="font-family:'HankenGrotesk-Bold', 'Hanken Grotesk';font-weight:700;font-size:294.274px;fill:white;">The Union o<tspan x="2149.71px " y="954.692px ">f</tspan></text>
                <text x="566.813px" y="1248.97px" style="font-family:'HankenGrotesk-Bold', 'Hanken Grotesk';font-weight:700;font-size:294.274px;fill:white;">Democr<tspan x="1616.78px " y="1248.97px ">a</tspan>tic S<tspan x="2349.53px " y="1248.97px ">t</tspan>at<tspan x="2723.25px " y="1248.97px ">e</tspan>s</text>
            </g>
            <g id="path7568-1" transform="matrix(2.1682,0,0,2.1682,84796.2,26727)">
                <path d="M-39006,-11561.2C-39006.1,-11561.5 -39006.2,-11563.4 -39006.3,-11565.3L-39006.6,-11568.8L-39007.2,-11569C-39007.6,-11569.1 -39009.4,-11569.5 -39011.2,-11570C-39013,-11570.4 -39014.5,-11570.8 -39014.5,-11570.9C-39014.5,-11570.9 -39012.8,-11571.7 -39010.7,-11572.5L-39007,-11574L-39007.3,-11578.1C-39007.4,-11580.3 -39007.5,-11582.2 -39007.5,-11582.2C-39007.4,-11582.3 -39007.4,-11582.3 -39004.5,-11578.9C-39002.9,-11577 -39002,-11576.1 -39001.8,-11576.1C-39001.7,-11576.2 -39000,-11576.9 -38998,-11577.7C-38996.1,-11578.4 -38994.5,-11579.1 -38994.5,-11579C-38994.4,-11579 -38995.4,-11577.4 -38996.5,-11575.5C-38997.7,-11573.6 -38998.6,-11572 -38998.6,-11571.9C-38998.5,-11571.8 -38997.4,-11570.4 -38996,-11568.7C-38994.6,-11567.1 -38993.5,-11565.7 -38993.5,-11565.7C-38993.5,-11565.7 -38995.3,-11566.1 -38997.5,-11566.6C-38999.7,-11567.1 -39001.5,-11567.5 -39001.5,-11567.5C-39001.6,-11567.4 -39002.5,-11565.9 -39003.6,-11564.1C-39004.7,-11562.3 -39005.7,-11560.8 -39005.8,-11560.7C-39005.8,-11560.6 -39005.9,-11560.8 -39006,-11561.2ZM-38968.5,-11563.9C-38969.7,-11565.7 -38970.6,-11567.3 -38970.7,-11567.4C-38970.8,-11567.5 -38972.3,-11567.2 -38974.8,-11566.6C-38976.9,-11566 -38978.8,-11565.6 -38978.8,-11565.7C-38978.8,-11565.7 -38977.7,-11567.1 -38976.3,-11568.7C-38975,-11570.4 -38973.8,-11571.8 -38973.7,-11571.9C-38973.7,-11572 -38974.6,-11573.7 -38975.8,-11575.5C-38977,-11577.4 -38977.9,-11579 -38977.8,-11579C-38977.8,-11579.1 -38976.1,-11578.4 -38974.1,-11577.6C-38972,-11576.8 -38970.3,-11576.1 -38970.3,-11576.1C-38970.2,-11576.1 -38965.8,-11581.2 -38965.1,-11582C-38965,-11582.2 -38964.9,-11582.3 -38964.8,-11582.2C-38964.8,-11582.2 -38964.9,-11580.3 -38965.1,-11578.1L-38965.3,-11574L-38961.6,-11572.5C-38959.5,-11571.7 -38957.8,-11570.9 -38957.8,-11570.9C-38957.8,-11570.8 -38959.3,-11570.4 -38961.1,-11569.9C-38962.9,-11569.5 -38964.7,-11569.1 -38965.1,-11569L-38965.8,-11568.8L-38966,-11565.1C-38966.1,-11563.1 -38966.3,-11561.2 -38966.4,-11561C-38966.5,-11560.6 -38966.8,-11561.1 -38968.5,-11563.9ZM-39030.2,-11580.3C-39031.8,-11581.7 -39033.2,-11582.9 -39033.3,-11582.9C-39033.4,-11583 -39034.7,-11582.3 -39036.2,-11581.4C-39037.7,-11580.6 -39039.3,-11579.6 -39039.8,-11579.4L-39040.7,-11578.8L-39040.5,-11579.3C-39040.4,-11579.5 -39039.6,-11581.3 -39038.8,-11583.2C-39037.6,-11586 -39037.3,-11586.6 -39037.6,-11586.8C-39039,-11587.9 -39043.4,-11592 -39043.3,-11592.1C-39043.2,-11592.1 -39041.4,-11592 -39039.2,-11591.8C-39037.1,-11591.6 -39035.3,-11591.4 -39035.3,-11591.5C-39035.2,-11591.5 -39034.4,-11593.2 -39033.6,-11595.2C-39032.7,-11597.2 -39031.9,-11598.9 -39031.9,-11598.9C-39031.8,-11598.9 -39031.4,-11597.1 -39030.9,-11594.9C-39030.4,-11592.7 -39030,-11590.9 -39030,-11590.9C-39030,-11590.9 -39028.5,-11590.7 -39026.7,-11590.6C-39022.5,-11590.2 -39021.7,-11590.1 -39021.9,-11589.9C-39022,-11589.8 -39023.6,-11588.8 -39025.5,-11587.7C-39028.1,-11586.2 -39028.9,-11585.7 -39028.8,-11585.4C-39028.5,-11584.2 -39027.2,-11578.1 -39027.3,-11577.9C-39027.3,-11577.8 -39028.6,-11578.9 -39030.2,-11580.3ZM-38945.1,-11578C-38945.1,-11578.2 -38944,-11583.1 -38943.5,-11585.4C-38943.4,-11585.7 -38943.9,-11586 -38947,-11587.8C-38948.9,-11589 -38950.5,-11590 -38950.5,-11590C-38950.4,-11590 -38948.6,-11590.2 -38946.4,-11590.5C-38944.2,-11590.7 -38942.4,-11590.9 -38942.3,-11590.9C-38942.3,-11590.9 -38941.9,-11592.7 -38941.4,-11594.9C-38940.9,-11597.1 -38940.5,-11598.9 -38940.4,-11598.9C-38940.4,-11598.9 -38939.6,-11597.2 -38938.8,-11595.2C-38937.9,-11593.2 -38937.1,-11591.5 -38937,-11591.5C-38937,-11591.4 -38935.1,-11591.6 -38933,-11591.8C-38930.8,-11592 -38929,-11592.1 -38928.9,-11592.1C-38928.9,-11592 -38933.7,-11587.6 -38934.8,-11586.8C-38935,-11586.6 -38934.8,-11586 -38933.5,-11583.2C-38931.7,-11579.2 -38931.6,-11578.8 -38931.8,-11578.9C-38931.9,-11579 -38933.5,-11579.9 -38935.4,-11581C-38937.2,-11582.1 -38938.9,-11583 -38939,-11582.9C-38939.1,-11582.9 -38940.5,-11581.7 -38942.1,-11580.3C-38943.6,-11578.9 -38945,-11577.8 -38945,-11577.8C-38945.1,-11577.8 -38945.1,-11577.9 -38945.1,-11578ZM-38985.5,-11590.3C-38985.5,-11590.4 -38985.7,-11591.1 -38985.9,-11591.9C-38986.1,-11592.6 -38986.7,-11594.2 -38987.1,-11595.4C-38987.8,-11597.5 -38987.9,-11597.8 -38988,-11600.1C-38988,-11601.5 -38988,-11603.4 -38987.9,-11604.5C-38987.7,-11605.6 -38987.6,-11608 -38987.5,-11609.9C-38987.4,-11611.8 -38987.2,-11614 -38987.1,-11614.9C-38986.9,-11616.6 -38986.8,-11620.3 -38986.9,-11620.4C-38987,-11620.4 -38987.4,-11620.5 -38988,-11620.6L-38988.9,-11620.7L-38989,-11617.1C-38989.1,-11614.6 -38989.3,-11613 -38989.5,-11611.8C-38990.2,-11608.9 -38990.3,-11607.8 -38990.2,-11605.4C-38990.1,-11603.8 -38990,-11602.6 -38989.7,-11601.7C-38989.5,-11601 -38989.4,-11600.4 -38989.4,-11600.4C-38989.6,-11600.2 -38990.1,-11600.6 -38991.3,-11602C-38992.2,-11603.2 -38992.6,-11603.9 -38992.9,-11604.9C-38993.8,-11607.8 -38993.8,-11609.5 -38993,-11613.8C-38992.7,-11615.2 -38992.5,-11617.3 -38992.4,-11618.9L-38992.3,-11621.7L-38993.1,-11622.1C-38993.6,-11622.3 -38993.9,-11622.3 -38994,-11622.2C-38994.1,-11622.1 -38994.2,-11620.9 -38994.4,-11619.5C-38994.5,-11618.2 -38994.7,-11616.2 -38994.8,-11615.1C-38995,-11614.1 -38995.2,-11612.4 -38995.2,-11611.4C-38995.3,-11610.4 -38995.4,-11609.3 -38995.4,-11609C-38995.5,-11608.3 -38995.5,-11608.3 -38995.9,-11608.7C-38996.3,-11609.2 -38997.3,-11611.5 -38997.5,-11612.8C-38997.8,-11614.4 -38997.5,-11623.3 -38997.2,-11623.9C-38996.9,-11624.3 -38996.9,-11624.3 -38998.2,-11625.6C-38999.9,-11627.2 -39001.1,-11628.8 -39002.1,-11631C-39003.4,-11633.8 -39003.7,-11635.1 -39003.8,-11638.4L-39003.9,-11641.2L-39005.6,-11641.3C-39006.6,-11641.4 -39011.3,-11641.5 -39016.1,-11641.6C-39021,-11641.7 -39025,-11641.9 -39025.2,-11642C-39025.3,-11642.1 -39025.9,-11642.2 -39026.4,-11642.3C-39026.9,-11642.5 -39027.5,-11642.7 -39027.8,-11642.9C-39028,-11643.1 -39028.6,-11643.3 -39029,-11643.5C-39030.7,-11644 -39033.4,-11646.2 -39035.5,-11648.7C-39036.2,-11649.5 -39036.4,-11650.3 -39035.9,-11650.1C-39034.9,-11649.7 -39032.6,-11648.9 -39031.6,-11648.6C-39031,-11648.4 -39030.3,-11648.2 -39030.1,-11648.1C-39029.5,-11647.7 -39026.1,-11647.4 -39021.9,-11647.2C-39011,-11646.7 -39009.1,-11646.6 -39007.4,-11646.3C-39006.5,-11646.1 -39005.5,-11645.9 -39005.3,-11645.7C-39004.7,-11645.5 -39003.1,-11644.9 -39003,-11645C-39003,-11645 -39002.8,-11645.5 -39002.5,-11646.1L-39002.1,-11647.1L-39003.1,-11647.5C-39003.7,-11647.6 -39004.3,-11647.9 -39004.4,-11648C-39004.8,-11648.4 -39005.7,-11648.6 -39007.9,-11649C-39010.6,-11649.6 -39011.4,-11649.6 -39020.1,-11649.8C-39028,-11650 -39029.8,-11650.1 -39030.9,-11650.6C-39031.2,-11650.8 -39031.8,-11651 -39032.2,-11651.1C-39033.4,-11651.5 -39035.4,-11652.5 -39036.2,-11653.2C-39038.8,-11655.3 -39041.6,-11658.8 -39040.7,-11658.8C-39040.6,-11658.8 -39040.5,-11658.7 -39040.5,-11658.6C-39040.5,-11658.2 -39036.6,-11656.8 -39034.2,-11656.3C-39033.6,-11656.2 -39032.8,-11656 -39032.5,-11655.9C-39031.7,-11655.5 -39028,-11655.2 -39021.5,-11655.1C-39015.5,-11655 -39011.2,-11654.8 -39010.5,-11654.5C-39007.1,-11653 -39006.1,-11652.4 -39003.4,-11650.1C-39002.7,-11649.5 -39002,-11649.1 -39001.9,-11649.1C-39001.8,-11649.1 -39001.7,-11648.9 -39001.6,-11648.8C-39001.4,-11648.5 -39001.3,-11648.6 -39000.8,-11649.3C-39000.2,-11650.2 -39000.2,-11650.2 -39000.5,-11650.8C-39000.9,-11651.5 -39002.3,-11653.4 -39003.6,-11654.7C-39004.1,-11655.2 -39004.4,-11655.7 -39004.4,-11655.8C-39004.4,-11656.1 -39008.4,-11659.4 -39009.6,-11660.2C-39010.3,-11660.6 -39010.9,-11661 -39010.9,-11661.1C-39010.8,-11661.2 -39011.2,-11661.4 -39011.6,-11661.5C-39012.1,-11661.7 -39012.4,-11661.9 -39012.4,-11662C-39012.2,-11662.2 -39010.9,-11662.1 -39009.3,-11661.8C-39007.2,-11661.5 -39006.8,-11661.4 -39006.5,-11661.1C-39006.3,-11661 -39005.9,-11660.7 -39005.5,-11660.5C-39004.2,-11659.9 -39002.8,-11659 -39002.2,-11658.4C-39001.6,-11657.8 -38999.3,-11656.2 -38999,-11656.2C-38998.9,-11656.2 -38998.6,-11656 -38998.5,-11655.9C-38998.1,-11655.5 -38995.4,-11655 -38994.7,-11655.2C-38994.3,-11655.3 -38993.5,-11655.6 -38992.9,-11655.9C-38992.2,-11656.3 -38991,-11656.7 -38990.1,-11656.9C-38988.6,-11657.3 -38987.5,-11657.9 -38987,-11658.5C-38986.9,-11658.6 -38986.5,-11658.9 -38986,-11659.1L-38985.3,-11659.6L-38984.2,-11658.8C-38983.6,-11658.4 -38982.8,-11657.9 -38982.4,-11657.6C-38981.9,-11657.3 -38981.5,-11657.1 -38981.3,-11657.1C-38980.8,-11657.1 -38977.8,-11656 -38977,-11655.5C-38976.4,-11655.2 -38976.1,-11655.2 -38974.7,-11655.3C-38973.3,-11655.4 -38972.9,-11655.5 -38971.7,-11656.1C-38969.9,-11657 -38968.9,-11657.7 -38967.8,-11658.8C-38967.3,-11659.2 -38966.7,-11659.8 -38966.3,-11659.9C-38966,-11660.1 -38965.4,-11660.4 -38965,-11660.5C-38964.6,-11660.7 -38964.1,-11661 -38963.9,-11661.1C-38963.1,-11661.7 -38958.2,-11662.4 -38957.9,-11662C-38957.8,-11661.9 -38958,-11661.7 -38958.4,-11661.6C-38958.7,-11661.6 -38959.3,-11661.3 -38959.7,-11661C-38960,-11660.7 -38960.7,-11660.3 -38961.2,-11660C-38963,-11659.1 -38968.4,-11653.5 -38969.9,-11650.9L-38970.4,-11650L-38969.9,-11649.2C-38969.3,-11648.3 -38969.3,-11648.3 -38969,-11648.6C-38968.8,-11648.8 -38968.3,-11649.3 -38967.8,-11649.7C-38967.3,-11650.1 -38966.7,-11650.6 -38966.4,-11650.9C-38965.8,-11651.4 -38964.1,-11652.4 -38963.7,-11652.4C-38963.5,-11652.4 -38963.4,-11652.5 -38963.4,-11652.6C-38963.4,-11652.8 -38961.9,-11653.8 -38960.8,-11654.1C-38958.9,-11654.8 -38956.8,-11655 -38949.3,-11655.1C-38942.4,-11655.2 -38938.3,-11655.5 -38937.7,-11656C-38937.6,-11656 -38937.2,-11656.2 -38936.8,-11656.2C-38935.8,-11656.4 -38931.4,-11657.8 -38930.5,-11658.2C-38929.8,-11658.6 -38929.8,-11658.6 -38929.8,-11658.3C-38929.8,-11657.7 -38932.6,-11654.5 -38934.1,-11653.4C-38935.7,-11652.2 -38936.5,-11651.8 -38938.3,-11651.2C-38939,-11650.9 -38939.6,-11650.7 -38939.8,-11650.6C-38940.2,-11650.2 -38943.2,-11650 -38950.9,-11649.8C-38958.4,-11649.7 -38959.2,-11649.6 -38961.7,-11649.2C-38963.1,-11648.9 -38964.5,-11648.6 -38964.8,-11648.5C-38965.1,-11648.4 -38965.5,-11648.3 -38965.7,-11648.3C-38966,-11648.3 -38966.2,-11648.2 -38966.1,-11648.1C-38966.1,-11647.9 -38966.3,-11647.8 -38966.7,-11647.8C-38967,-11647.8 -38967.5,-11647.6 -38967.9,-11647.4C-38968.2,-11647.2 -38968.5,-11647.1 -38968.6,-11647.1C-38968.6,-11647.1 -38968.4,-11646.6 -38968.2,-11646C-38967.7,-11644.8 -38967.6,-11644.7 -38966.5,-11645.3C-38964.2,-11646.4 -38961,-11646.8 -38952.8,-11647C-38949.2,-11647.1 -38945.4,-11647.3 -38944,-11647.5C-38941.6,-11647.8 -38940.8,-11648 -38936.6,-11649.4C-38935.5,-11649.7 -38934.5,-11650 -38934.4,-11650C-38933.6,-11650 -38937.3,-11645.9 -38939.1,-11644.8C-38939.4,-11644.6 -38939.9,-11644.3 -38940.3,-11644.1C-38940.6,-11643.8 -38941.1,-11643.6 -38941.4,-11643.5C-38941.6,-11643.5 -38942,-11643.3 -38942.1,-11643.2C-38942.5,-11642.8 -38944.3,-11642.2 -38945.5,-11642C-38946,-11641.9 -38950.6,-11641.7 -38955.6,-11641.6C-38960.5,-11641.5 -38965.1,-11641.4 -38965.7,-11641.3L-38966.8,-11641.2L-38966.9,-11638.7C-38966.9,-11635.1 -38967.9,-11631.9 -38969.8,-11628.9C-38970.7,-11627.5 -38972.5,-11625.4 -38973.1,-11625.1C-38973.8,-11624.7 -38973.8,-11624.5 -38973.2,-11622.7C-38972.7,-11621 -38972.6,-11618.7 -38972.9,-11615C-38973.2,-11611.9 -38973.8,-11609.7 -38974.3,-11609.7C-38974.3,-11609.7 -38974.4,-11609.5 -38974.4,-11609.3C-38974.4,-11608.9 -38975,-11608.1 -38975,-11608.5C-38975,-11609.4 -38975.6,-11614.2 -38975.7,-11614.8C-38975.8,-11615.2 -38976,-11617.1 -38976.1,-11619C-38976.2,-11620.8 -38976.3,-11622.4 -38976.3,-11622.5C-38976.4,-11622.6 -38977.9,-11622 -38978.5,-11621.7C-38978.6,-11621.6 -38977.7,-11614.4 -38977.4,-11612.7C-38977.2,-11611.6 -38977,-11610.2 -38977,-11608.9C-38977,-11607.2 -38977.1,-11606.7 -38977.6,-11605.2C-38977.9,-11604.2 -38978.4,-11603.1 -38978.6,-11602.7C-38979.2,-11601.9 -38980.9,-11600.3 -38981.1,-11600.4C-38981.1,-11600.5 -38981,-11601 -38980.9,-11601.7C-38980,-11605 -38980.1,-11607.6 -38981.3,-11613C-38981.6,-11614.4 -38981.7,-11615.5 -38981.7,-11617.8L-38981.7,-11620.7L-38982.5,-11620.6C-38982.9,-11620.5 -38983.3,-11620.4 -38983.4,-11620.3C-38983.5,-11620.2 -38983.5,-11618.8 -38983.5,-11617.1C-38983.4,-11615.4 -38983.3,-11612.1 -38983.3,-11609.7C-38983.2,-11607.3 -38983,-11604.2 -38982.9,-11602.9C-38982.5,-11599.7 -38982.7,-11597.8 -38983.4,-11595.7C-38983.8,-11594.8 -38984.3,-11593.3 -38984.6,-11592.4C-38985.3,-11590.1 -38985.4,-11589.9 -38985.5,-11590.3L-38985.5,-11590.3ZM-38991.5,-11625.5C-38992,-11626.2 -38992.6,-11627.2 -38992.9,-11627.8L-38993.4,-11628.9L-38997.4,-11628.9L-38996.6,-11628C-38996.1,-11627.6 -38995.4,-11626.9 -38994.8,-11626.5C-38994,-11625.9 -38991.1,-11624.3 -38990.8,-11624.2C-38990.7,-11624.2 -38991,-11624.8 -38991.5,-11625.5ZM-38978.8,-11624.7C-38977.2,-11625.5 -38975.5,-11626.8 -38974.4,-11627.9L-38973.4,-11628.9L-38977.3,-11628.9L-38977.9,-11627.7C-38978.3,-11627 -38978.9,-11625.9 -38979.4,-11625.3C-38979.8,-11624.7 -38980.1,-11624.2 -38980,-11624.2C-38979.9,-11624.2 -38979.4,-11624.5 -38978.8,-11624.7L-38978.8,-11624.7ZM-38986.9,-11626.8L-38986.9,-11628.9L-38988.5,-11628.9C-38989.4,-11628.9 -38990.1,-11628.8 -38990.1,-11628.8C-38990.1,-11628.4 -38987.3,-11624.6 -38987,-11624.6C-38986.9,-11624.6 -38986.9,-11625.6 -38986.9,-11626.8L-38986.9,-11626.8ZM-38982.1,-11626.6C-38981.7,-11627.1 -38981.2,-11627.8 -38981,-11628.2L-38980.5,-11628.9L-38983.9,-11628.9L-38983.9,-11624.5L-38983.3,-11625.1C-38983,-11625.4 -38982.4,-11626.1 -38982.1,-11626.6ZM-38975.9,-11631.4C-38976,-11631.6 -38976.1,-11631.7 -38976.2,-11631.7C-38976.2,-11631.7 -38976.3,-11631.6 -38976.3,-11631.4C-38976.4,-11631.2 -38976.3,-11631.1 -38976.1,-11631.1C-38975.7,-11631.1 -38975.7,-11631.2 -38975.9,-11631.4ZM-38994.8,-11632.3C-38994.9,-11632.5 -38995.1,-11633.8 -38995.3,-11635.1L-38995.7,-11637.5L-39000.9,-11637.5L-39000.9,-11637.1C-39000.9,-11636.4 -39000.2,-11633.9 -38999.8,-11632.8L-38999.4,-11631.9L-38997,-11631.9C-38994.7,-11631.9 -38994.7,-11631.9 -38994.8,-11632.3ZM-38986.9,-11634.7L-38986.8,-11637.5L-38989.8,-11637.5C-38992.7,-11637.5 -38992.7,-11637.5 -38992.7,-11637.1C-38992.7,-11636.3 -38992.3,-11634.4 -38991.9,-11633.1L-38991.6,-11631.9L-38986.9,-11631.9L-38986.9,-11634.7ZM-38978.7,-11633.5C-38978.5,-11634.3 -38978.2,-11635.6 -38978.2,-11636.3L-38978,-11637.7L-38983.9,-11637.7L-38983.9,-11631.9L-38981.5,-11631.9L-38979.2,-11632L-38978.7,-11633.5ZM-38971,-11632.7C-38970.7,-11633.5 -38970.1,-11635.7 -38969.8,-11636.9L-38969.7,-11637.5L-38975.1,-11637.5L-38975.2,-11636.3C-38975.3,-11635.2 -38975.8,-11633 -38976,-11632.2C-38976.1,-11631.9 -38976,-11631.9 -38973.7,-11631.9L-38971.4,-11631.9L-38971,-11632.7ZM-39000.7,-11640.3C-39000.7,-11640.4 -38999.8,-11640.5 -38998.2,-11640.5L-38995.7,-11640.5L-38995.5,-11642.1C-38995.4,-11643 -38995.1,-11644.3 -38994.9,-11645L-38994.6,-11646.3L-38996.3,-11646.2C-38997.2,-11646.1 -38998.3,-11646.1 -38998.7,-11646.1C-38999.3,-11646.1 -38999.4,-11646 -38999.8,-11645.1C-39000.5,-11643.1 -39001.2,-11640.1 -39000.9,-11640.1C-39000.8,-11640.1 -39000.7,-11640.2 -39000.7,-11640.3ZM-38989.5,-11640.5L-38986.7,-11640.5L-38986.8,-11640.9C-38986.9,-11641.1 -38986.9,-11642.4 -38986.9,-11643.7L-38986.9,-11646.1L-38991.6,-11646.1L-38991.9,-11644.9C-38992.4,-11643.3 -38992.8,-11640.8 -38992.6,-11640.4C-38992.5,-11640.1 -38992.4,-11640.1 -38992.4,-11640.2C-38992.3,-11640.4 -38991.6,-11640.5 -38989.5,-11640.5L-38989.5,-11640.5ZM-38978.2,-11641.7C-38978.3,-11642.4 -38978.5,-11643.7 -38978.7,-11644.5L-38979.2,-11646L-38981.5,-11646L-38983.9,-11646.1L-38983.9,-11640.5L-38978.1,-11640.5L-38978.2,-11641.7ZM-38970.1,-11641.9C-38970.2,-11642.7 -38970.6,-11643.9 -38970.8,-11644.7L-38971.3,-11646L-38973.7,-11646C-38975.9,-11646.1 -38976.1,-11646.1 -38976,-11645.8C-38975.7,-11644.8 -38975.3,-11642.9 -38975.2,-11641.7L-38975.1,-11640.5L-38969.8,-11640.5L-38970.1,-11641.9ZM-38982.1,-11649.1L-38980.6,-11649.1L-38981.3,-11650.2C-38981.6,-11650.8 -38982.4,-11651.8 -38982.9,-11652.4L-38983.9,-11653.4L-38983.9,-11651C-38983.9,-11649.7 -38983.9,-11648.7 -38983.8,-11648.8C-38983.7,-11649 -38983.2,-11649.1 -38982.1,-11649.1ZM-38992.9,-11650.2C-38992.5,-11650.8 -38991.9,-11651.9 -38991.4,-11652.6C-38990.6,-11653.7 -38990.6,-11653.7 -38991.1,-11653.5C-38993.1,-11652.8 -38996.6,-11650.3 -38997.2,-11649.2C-38997.4,-11648.9 -38997.3,-11648.9 -38995.5,-11648.9L-38993.5,-11649L-38992.9,-11650.2ZM-38986.9,-11651.2L-38986.9,-11653.4L-38987.6,-11652.7C-38988.4,-11651.8 -38990.1,-11649.4 -38990.1,-11649.2C-38990.1,-11649.1 -38989.2,-11649 -38987.8,-11648.9L-38986.9,-11648.9L-38986.9,-11651.2L-38986.9,-11651.2ZM-38974.2,-11649.9C-38975.3,-11651.1 -38977.4,-11652.5 -38978.9,-11653.2C-38979.5,-11653.5 -38980.1,-11653.7 -38980.1,-11653.7C-38980.1,-11653.7 -38979.7,-11653 -38979.1,-11652.2C-38978.5,-11651.3 -38977.9,-11650.2 -38977.7,-11649.8L-38977.3,-11649.1L-38973.4,-11649.1L-38974.2,-11649.9ZM-39051.8,-11604.1C-39052,-11604.3 -39052.6,-11606.1 -39053.3,-11607.9L-39054.6,-11611.3L-39057.5,-11611.2C-39059.1,-11611.2 -39060.9,-11611.1 -39061.6,-11611.1C-39062.3,-11611 -39062.9,-11611 -39062.9,-11611.1C-39062.9,-11611.2 -39061.4,-11612.4 -39059.7,-11613.8C-39057.9,-11615.1 -39056.5,-11616.3 -39056.5,-11616.3C-39056.5,-11616.3 -39057.2,-11618 -39057.9,-11620.1C-39058.7,-11622.1 -39059.3,-11623.8 -39059.3,-11623.9C-39059.2,-11624 -39057.8,-11623.1 -39056.1,-11622C-39054.3,-11620.8 -39052.7,-11619.8 -39052.6,-11619.8C-39052.4,-11619.8 -39051.1,-11620.7 -39049.1,-11622.2C-39047.4,-11623.6 -39046,-11624.7 -39045.9,-11624.7C-39045.9,-11624.7 -39046.3,-11623 -39046.9,-11620.9C-39047.5,-11618.8 -39047.9,-11617 -39047.9,-11616.9C-39047.9,-11616.7 -39047.8,-11616.5 -39047.5,-11616.4C-39047.3,-11616.3 -39045.8,-11615.3 -39044.1,-11614.2L-39041.1,-11612.2L-39042,-11612.1C-39042.4,-11612 -39044.3,-11611.9 -39046.1,-11611.8C-39049.4,-11611.7 -39049.4,-11611.7 -39049.5,-11611.2C-39049.6,-11611 -39050.1,-11609.2 -39050.6,-11607.2C-39051.5,-11604 -39051.6,-11603.7 -39051.8,-11604.1L-39051.8,-11604.1ZM-38921.7,-11607.1C-38922.2,-11609 -38922.6,-11610.8 -38922.7,-11611.1L-38922.9,-11611.7L-38925.8,-11611.8C-38927.4,-11611.9 -38929.3,-11612 -38930,-11612.1L-38931.2,-11612.2L-38927.8,-11614.4C-38925.9,-11615.6 -38924.4,-11616.8 -38924.4,-11616.9C-38924.4,-11617 -38924.8,-11618.8 -38925.4,-11620.9C-38926,-11623 -38926.4,-11624.7 -38926.4,-11624.7C-38926.4,-11624.8 -38924.9,-11623.6 -38923.1,-11622.2L-38919.9,-11619.6L-38916.5,-11621.8C-38914.6,-11623 -38913.1,-11624 -38913,-11623.9C-38913,-11623.8 -38913.6,-11622.1 -38914.4,-11620C-38915.8,-11616.4 -38915.8,-11616.3 -38915.4,-11616C-38913.4,-11614.4 -38909.5,-11611.2 -38909.5,-11611.1C-38909.5,-11611 -38910.1,-11611 -38910.8,-11611.1C-38911.5,-11611.1 -38913.4,-11611.2 -38914.9,-11611.2L-38917.7,-11611.3L-38919.1,-11607.6C-38919.9,-11605.6 -38920.5,-11603.9 -38920.6,-11603.9C-38920.7,-11603.8 -38921.2,-11605.3 -38921.7,-11607.1L-38921.7,-11607.1ZM-39061.2,-11639C-39061.2,-11639.2 -39061,-11641.1 -39060.7,-11643.1C-39060.5,-11645.1 -39060.3,-11646.7 -39060.3,-11646.8C-39060.4,-11646.8 -39065.4,-11649.1 -39066.8,-11649.8C-39068.1,-11650.3 -39068.2,-11650.3 -39063.4,-11651.2C-39060.1,-11651.8 -39059.7,-11651.9 -39059.6,-11652.3C-39059.6,-11652.5 -39059.3,-11654.4 -39059.1,-11656.4C-39058.9,-11658.4 -39058.6,-11660.1 -39058.6,-11660.1C-39058.5,-11660.1 -39057.6,-11658.5 -39056.5,-11656.5C-39055.4,-11654.6 -39054.5,-11653 -39054.4,-11653C-39054.3,-11653 -39052.5,-11653.3 -39050.4,-11653.7C-39048.4,-11654.1 -39046.7,-11654.4 -39046.6,-11654.4C-39046.5,-11654.4 -39047.6,-11653 -39049.1,-11651.4C-39050.6,-11649.8 -39051.9,-11648.4 -39051.9,-11648.3C-39051.9,-11648.2 -39051.1,-11646.8 -39050.2,-11645.2C-39049.3,-11643.6 -39048.4,-11642 -39048.2,-11641.6L-39047.9,-11641L-39048.5,-11641.3C-39048.9,-11641.4 -39050.6,-11642.2 -39052.4,-11643L-39055.6,-11644.5L-39058.1,-11641.8C-39061.2,-11638.4 -39061.2,-11638.4 -39061.2,-11639ZM-38914,-11641.5C-38914,-11641.5 -38916.8,-11644.5 -38916.8,-11644.5L-38920.2,-11643C-38922,-11642.1 -38923.7,-11641.3 -38924,-11641.2C-38924.4,-11641 -38924.4,-11641 -38924.1,-11641.6C-38923.9,-11642 -38923,-11643.6 -38922.1,-11645.2C-38921.2,-11646.8 -38920.5,-11648.2 -38920.5,-11648.3C-38920.5,-11648.4 -38921.7,-11649.8 -38923.2,-11651.4C-38924.7,-11653 -38925.9,-11654.4 -38925.8,-11654.4C-38925.8,-11654.4 -38923.9,-11654.1 -38921.8,-11653.7C-38919.6,-11653.3 -38917.8,-11653 -38917.8,-11653C-38917.7,-11653 -38916.8,-11654.6 -38915.8,-11656.6C-38914.7,-11658.5 -38913.8,-11660.1 -38913.7,-11660.1C-38913.7,-11660.1 -38913.4,-11658.4 -38913.2,-11656.4C-38913,-11654.4 -38912.7,-11652.5 -38912.7,-11652.3C-38912.6,-11652 -38912.2,-11651.9 -38909.5,-11651.3C-38904.8,-11650.4 -38904.5,-11650.3 -38904.7,-11650.2C-38904.8,-11650.1 -38906.5,-11649.3 -38908.4,-11648.4C-38910.4,-11647.5 -38912,-11646.8 -38912,-11646.8C-38912,-11646.7 -38911.8,-11645 -38911.6,-11643C-38911.3,-11640.9 -38911.1,-11639.1 -38911.2,-11638.9C-38911.2,-11638.6 -38911.9,-11639.3 -38914,-11641.5ZM-39007.8,-11655.4C-39007.8,-11655.8 -39011.4,-11657 -39014.2,-11657.5C-39014.8,-11657.5 -39018.6,-11657.6 -39022.8,-11657.6C-39030.7,-11657.6 -39034.5,-11657.9 -39035.8,-11658.5C-39036.2,-11658.6 -39037.2,-11659 -39038.1,-11659.4C-39039.1,-11659.8 -39040.1,-11660.3 -39040.4,-11660.6C-39040.7,-11660.9 -39041.4,-11661.4 -39041.9,-11661.8C-39042.5,-11662.2 -39043.1,-11662.8 -39043.4,-11663.2C-39043.7,-11663.6 -39044.2,-11664.2 -39044.6,-11664.6C-39046,-11666.2 -39046.1,-11666.8 -39044.8,-11666.1C-39044.2,-11665.7 -39041.2,-11664.7 -39040.1,-11664.5C-39039.7,-11664.4 -39038.9,-11664.2 -39038.3,-11664.1C-39037.7,-11663.9 -39036.6,-11663.8 -39035.8,-11663.7C-39035,-11663.6 -39034.3,-11663.5 -39034.1,-11663.4C-39034,-11663.2 -39031.8,-11663.1 -39027.3,-11663C-39023.7,-11663 -39020.4,-11662.8 -39019.9,-11662.8C-39018.1,-11662.5 -39015.1,-11661.5 -39014.2,-11660.9C-39013.9,-11660.7 -39013.5,-11660.4 -39013.2,-11660.3C-39012.1,-11659.9 -39010.5,-11658.8 -39008.9,-11657.3C-39007.3,-11655.7 -39007,-11655.2 -39007.5,-11655.2C-39007.7,-11655.2 -39007.8,-11655.3 -39007.8,-11655.4ZM-38963.4,-11655.4C-38963.4,-11655.7 -38961.8,-11657.4 -38960.3,-11658.5C-38959.1,-11659.4 -38957.4,-11660.4 -38956.3,-11660.8C-38955.8,-11661 -38955.2,-11661.4 -38955,-11661.6C-38954.9,-11661.6 -38954.3,-11661.9 -38953.5,-11662.1C-38951.7,-11662.6 -38949.2,-11662.8 -38942.1,-11663.1C-38934,-11663.5 -38929.5,-11664.3 -38926.3,-11665.8C-38924.6,-11666.6 -38924.5,-11666.2 -38926.1,-11664.5C-38927.4,-11662.9 -38928.5,-11661.8 -38928.7,-11661.7C-38928.8,-11661.7 -38929.2,-11661.4 -38929.7,-11661C-38930.5,-11660.2 -38933.6,-11658.8 -38934.3,-11658.8C-38934.6,-11658.8 -38934.8,-11658.7 -38934.9,-11658.6C-38934.9,-11658.4 -38935.5,-11658.2 -38936.1,-11658.1C-38937.1,-11657.8 -38939.3,-11657.7 -38947,-11657.7C-38952.3,-11657.6 -38956.7,-11657.5 -38956.8,-11657.4C-38956.9,-11657.3 -38957.7,-11657.1 -38958.5,-11657C-38960.3,-11656.6 -38961.7,-11656.2 -38962.2,-11655.7C-38962.4,-11655.5 -38962.6,-11655.4 -38962.7,-11655.4C-38962.7,-11655.4 -38962.9,-11655.4 -38963.1,-11655.3C-38963.3,-11655.2 -38963.4,-11655.3 -38963.4,-11655.4ZM-38990.7,-11659C-38990.2,-11666.7 -38990,-11668 -38988.5,-11670.2C-38987.6,-11671.6 -38986.8,-11672.3 -38985.5,-11672.8C-38982.6,-11673.9 -38978.3,-11672.8 -38976.6,-11670.5C-38975.7,-11669.3 -38975.9,-11668.3 -38977.1,-11668.3C-38977.8,-11668.3 -38979.1,-11667.8 -38979.2,-11667.6C-38979.3,-11667.2 -38978.9,-11667.1 -38976.8,-11666.9C-38974.4,-11666.6 -38973.1,-11666.2 -38973.2,-11666C-38973.2,-11665.8 -38974.1,-11665.7 -38975.2,-11665.6C-38977,-11665.5 -38977.3,-11665.4 -38978.1,-11665C-38979.4,-11664.2 -38979.7,-11663.5 -38979.9,-11661.9C-38979.9,-11661.1 -38979.9,-11659.9 -38979.8,-11659.3C-38979.7,-11658.6 -38979.7,-11658.1 -38979.7,-11658.1C-38979.8,-11658 -38980.2,-11658.3 -38980.8,-11658.8C-38981.3,-11659.2 -38982.1,-11659.7 -38982.6,-11660C-38983.1,-11660.2 -38983.7,-11660.6 -38983.9,-11660.8C-38984.4,-11661.4 -38985.4,-11661.8 -38985.4,-11661.6C-38985.5,-11661.5 -38987,-11660.4 -38988.3,-11659.7C-38988.7,-11659.5 -38989.4,-11659 -38989.8,-11658.6C-38990.3,-11658.3 -38990.6,-11658 -38990.7,-11658C-38990.7,-11658 -38990.7,-11658.5 -38990.7,-11659L-38990.7,-11659ZM-38972.5,-11665.6C-38972.5,-11665.8 -38972.6,-11666.1 -38972.8,-11666.3C-38973.1,-11666.7 -38974.9,-11667.2 -38976.1,-11667.2C-38976.7,-11667.2 -38977.3,-11667.3 -38977.6,-11667.3L-38978,-11667.5L-38977.5,-11667.7C-38977.2,-11667.8 -38976.6,-11668 -38976.2,-11668C-38975.5,-11668.1 -38975.5,-11668.2 -38975.5,-11668.9C-38975.5,-11669.4 -38975.6,-11669.9 -38975.8,-11670.1C-38976.4,-11670.9 -38976,-11670.9 -38974.3,-11670.1C-38973.1,-11669.5 -38972.9,-11669.4 -38972.6,-11668.5C-38972,-11667.3 -38971.9,-11666.4 -38972,-11665.8C-38972.2,-11665.2 -38972.5,-11665.1 -38972.5,-11665.6L-38972.5,-11665.6ZM-39042.9,-11672.9C-39044.3,-11674.6 -39045.4,-11676.1 -39045.5,-11676.1C-39045.6,-11676.1 -39047.3,-11675.5 -39049.4,-11674.8C-39051.4,-11674.1 -39053.2,-11673.5 -39053.2,-11673.5C-39053.3,-11673.5 -39052.8,-11674.3 -39052.2,-11675.2C-39051.5,-11676.2 -39050.5,-11677.7 -39049.8,-11678.7L-39048.6,-11680.4L-39051.1,-11683.6C-39052.4,-11685.4 -39053.5,-11686.8 -39053.5,-11686.9C-39053.4,-11686.9 -39051.6,-11686.5 -39049.5,-11685.8C-39047.4,-11685.2 -39045.6,-11684.7 -39045.6,-11684.7C-39045.6,-11684.8 -39044.5,-11686.3 -39043.3,-11688.2L-39040.9,-11691.5L-39040.9,-11690.5C-39040.8,-11689.9 -39040.8,-11688 -39040.7,-11686.3L-39040.6,-11683.2L-39036.7,-11682C-39034.6,-11681.4 -39032.8,-11680.8 -39032.8,-11680.8C-39032.8,-11680.7 -39033.6,-11680.4 -39034.5,-11680.1C-39035.3,-11679.8 -39037.1,-11679.1 -39038.3,-11678.7L-39040.5,-11677.9L-39040.4,-11673.8C-39040.3,-11671.5 -39040.3,-11669.6 -39040.4,-11669.6C-39040.4,-11669.6 -39041.5,-11671.1 -39042.9,-11672.9L-39042.9,-11672.9ZM-38931.9,-11673.8L-38931.8,-11677.9L-38933.4,-11678.5C-38934.2,-11678.8 -38936,-11679.4 -38937.2,-11679.9C-38938.5,-11680.3 -38939.5,-11680.7 -38939.4,-11680.8C-38939.3,-11680.9 -38937.5,-11681.4 -38935.5,-11682L-38931.8,-11683.1L-38931.6,-11686.3C-38931.6,-11688 -38931.5,-11689.9 -38931.4,-11690.5L-38931.4,-11691.5L-38929.1,-11688.2C-38927.8,-11686.3 -38926.7,-11684.8 -38926.7,-11684.7C-38926.7,-11684.7 -38924.9,-11685.2 -38922.8,-11685.8C-38920.7,-11686.5 -38918.9,-11686.9 -38918.8,-11686.9C-38918.8,-11686.8 -38919.9,-11685.4 -38921.2,-11683.6L-38923.7,-11680.4L-38922.9,-11679.2C-38919.6,-11674.4 -38919,-11673.5 -38919,-11673.5C-38919.1,-11673.5 -38920.8,-11674.1 -38922.9,-11674.8C-38924.9,-11675.5 -38926.7,-11676.1 -38926.8,-11676.1C-38926.9,-11676.1 -38928.1,-11674.6 -38929.4,-11672.9C-38930.8,-11671.1 -38931.9,-11669.6 -38932,-11669.6C-38932,-11669.6 -38932,-11671.5 -38931.9,-11673.8L-38931.9,-11673.8ZM-39021.5,-11695.5C-39021.8,-11697.7 -39022.2,-11699.5 -39022.2,-11699.6C-39022.3,-11699.6 -39024.1,-11699.9 -39026.4,-11700.2C-39028.6,-11700.6 -39030.3,-11700.9 -39030.3,-11701C-39030.2,-11701 -39028.6,-11701.9 -39026.7,-11702.9C-39024.8,-11703.9 -39023.2,-11704.7 -39023.1,-11704.8C-39023.1,-11704.8 -39023.4,-11706.6 -39023.7,-11708.8C-39024.1,-11711 -39024.4,-11712.8 -39024.3,-11712.9C-39024.3,-11712.9 -39022.9,-11711.7 -39021.4,-11710.1C-39019.8,-11708.6 -39018.5,-11707.3 -39018.4,-11707.3C-39018.3,-11707.3 -39016.7,-11708.1 -39014.7,-11709.2C-39012.8,-11710.2 -39011.2,-11711 -39011.1,-11711C-39011,-11711 -39011.8,-11709.4 -39012.8,-11707.3L-39014.7,-11703.6L-39011.7,-11700.7C-39009.7,-11698.7 -39008.9,-11697.8 -39009.1,-11697.8C-39009.5,-11697.8 -39015.5,-11698.6 -39016.4,-11698.8C-39016.9,-11698.9 -39017,-11698.8 -39018.8,-11695.2C-39019.8,-11693.1 -39020.7,-11691.4 -39020.7,-11691.4C-39020.8,-11691.4 -39021.1,-11693.2 -39021.5,-11695.5ZM-38953.5,-11695.1C-38955.3,-11698.8 -38955.4,-11698.9 -38955.9,-11698.8C-38957.2,-11698.6 -38962.8,-11697.8 -38963.1,-11697.8C-38963.4,-11697.8 -38962.7,-11698.6 -38960.6,-11700.7L-38957.6,-11703.6L-38959.5,-11707.3C-38960.5,-11709.4 -38961.3,-11711 -38961.2,-11711C-38961.2,-11711 -38959.5,-11710.2 -38957.6,-11709.2C-38955.6,-11708.1 -38954,-11707.3 -38953.9,-11707.3C-38953.8,-11707.3 -38952.5,-11708.6 -38950.9,-11710.1C-38949.4,-11711.7 -38948.1,-11712.9 -38948,-11712.9C-38947.9,-11712.8 -38948.2,-11711 -38948.6,-11708.8C-38948.9,-11706.6 -38949.2,-11704.8 -38949.2,-11704.8C-38949.1,-11704.7 -38947.6,-11703.9 -38945.7,-11702.9C-38943.8,-11701.9 -38942.1,-11701 -38942.1,-11701C-38942,-11700.9 -38943.7,-11700.6 -38946,-11700.2C-38948.2,-11699.9 -38950.1,-11699.6 -38950.1,-11699.6C-38950.1,-11699.5 -38950.5,-11697.7 -38950.9,-11695.4L-38951.6,-11691.3L-38953.5,-11695.1ZM-38993.6,-11700.9C-38993.6,-11701 -38993.1,-11702.6 -38992.5,-11704.5C-38991.9,-11706.4 -38991.3,-11708.3 -38991.1,-11708.7L-38990.9,-11709.5L-38994.6,-11712.2L-38998.3,-11714.8L-38993.7,-11714.9L-38989.1,-11715L-38987.7,-11719.4C-38986.9,-11721.8 -38986.2,-11723.7 -38986.2,-11723.7C-38986.1,-11723.7 -38985.4,-11721.8 -38984.7,-11719.4L-38983.3,-11715L-38978.7,-11714.9L-38974.1,-11714.8L-38977.8,-11712.2L-38981.5,-11709.5L-38981.2,-11708.7C-38981.1,-11708.3 -38980.4,-11706.4 -38979.8,-11704.4C-38979.2,-11702.5 -38978.7,-11700.9 -38978.7,-11700.8C-38978.8,-11700.8 -38980.5,-11701.9 -38982.4,-11703.4C-38984.4,-11704.8 -38986.2,-11706 -38986.3,-11705.9C-38986.4,-11705.9 -38988.1,-11704.7 -38990,-11703.3C-38991.9,-11701.9 -38993.5,-11700.8 -38993.5,-11700.8C-38993.6,-11700.8 -38993.6,-11700.8 -38993.6,-11700.9Z" style="fill:rgb(254,255,254);fill-rule:nonzero;"/>
            </g>
        </g>
        <g transform="matrix(1.04315e-17,0.170359,-2.66379,1.6311e-16,2397.82,1731.25)">
            <rect x="722.931" y="300" width="62.322" height="485.252" style="fill:rgb(255,165,0);"/>
        </g>
    </g>
</svg>
