<?xml version="1.0" encoding="UTF-8" standalone="no"?>
<!DOCTYPE svg PUBLIC "-//W3C//DTD SVG 1.1//EN" "http://www.w3.org/Graphics/SVG/1.1/DTD/svg11.dtd">
<svg width="100%" height="100%" viewBox="0 0 2263 182" version="1.1" xmlns="http://www.w3.org/2000/svg" xmlns:xlink="http://www.w3.org/1999/xlink" xml:space="preserve" xmlns:serif="http://www.serif.com/" style="fill-rule:evenodd;clip-rule:evenodd;stroke-linejoin:round;stroke-miterlimit:2;">
    <g transform="matrix(1,0,0,1,-143.934,-2165.57)">
        <g transform="matrix(4.66176,0,0,0.374279,-1254.59,2053.28)">
            <rect x="300" y="300" width="485.252" height="485.252" style="fill:rgb(48,95,35);"/>
        </g>
        <g id="path7568-1" transform="matrix(1.79018,0,0,1.79018,71065.8,23084.2)">
            <path d="M-38985.5,-11590.3C-38985.5,-11590.4 -38985.7,-11591.1 -38985.9,-11591.9C-38986.1,-11592.6 -38986.7,-11594.2 -38987.1,-11595.4C-38987.8,-11597.5 -38987.9,-11597.8 -38988,-11600.1C-38988,-11601.5 -38988,-11603.4 -38987.9,-11604.5C-38987.7,-11605.6 -38987.6,-11608 -38987.5,-11609.9C-38987.4,-11611.8 -38987.2,-11614 -38987.1,-11614.9C-38986.9,-11616.6 -38986.8,-11620.3 -38986.9,-11620.4C-38987,-11620.4 -38987.4,-11620.5 -38988,-11620.6L-38988.9,-11620.7L-38989,-11617.1C-38989.1,-11614.6 -38989.3,-11613 -38989.5,-11611.8C-38990.2,-11608.9 -38990.3,-11607.8 -38990.2,-11605.4C-38990.1,-11603.8 -38990,-11602.6 -38989.7,-11601.7C-38989.5,-11601 -38989.4,-11600.4 -38989.4,-11600.4C-38989.6,-11600.2 -38990.1,-11600.6 -38991.3,-11602C-38992.2,-11603.2 -38992.6,-11603.9 -38992.9,-11604.9C-38993.8,-11607.8 -38993.8,-11609.5 -38993,-11613.8C-38992.7,-11615.2 -38992.5,-11617.3 -38992.4,-11618.9L-38992.3,-11621.7L-38993.1,-11622.1C-38993.6,-11622.3 -38993.9,-11622.3 -38994,-11622.2C-38994.1,-11622.1 -38994.2,-11620.9 -38994.4,-11619.5C-38994.5,-11618.2 -38994.7,-11616.2 -38994.8,-11615.1C-38995,-11614.1 -38995.2,-11612.4 -38995.2,-11611.4C-38995.3,-11610.4 -38995.4,-11609.3 -38995.4,-11609C-38995.5,-11608.3 -38995.5,-11608.3 -38995.9,-11608.7C-38996.3,-11609.2 -38997.3,-11611.5 -38997.5,-11612.8C-38997.8,-11614.4 -38997.5,-11623.3 -38997.2,-11623.9C-38996.9,-11624.3 -38996.9,-11624.3 -38998.2,-11625.6C-38999.9,-11627.2 -39001.1,-11628.8 -39002.1,-11631C-39003.4,-11633.8 -39003.7,-11635.1 -39003.8,-11638.4L-39003.9,-11641.2L-39005.6,-11641.3C-39006.6,-11641.4 -39011.3,-11641.5 -39016.1,-11641.6C-39021,-11641.7 -39025,-11641.9 -39025.2,-11642C-39025.3,-11642.1 -39025.9,-11642.2 -39026.4,-11642.3C-39026.9,-11642.5 -39027.5,-11642.7 -39027.8,-11642.9C-39028,-11643.1 -39028.6,-11643.3 -39029,-11643.5C-39030.7,-11644 -39033.4,-11646.2 -39035.5,-11648.7C-39036.2,-11649.5 -39036.4,-11650.3 -39035.9,-11650.1C-39034.9,-11649.7 -39032.6,-11648.9 -39031.6,-11648.6C-39031,-11648.4 -39030.3,-11648.2 -39030.1,-11648.1C-39029.5,-11647.7 -39026.1,-11647.4 -39021.9,-11647.2C-39011,-11646.7 -39009.1,-11646.6 -39007.4,-11646.3C-39006.5,-11646.1 -39005.5,-11645.9 -39005.3,-11645.7C-39004.7,-11645.5 -39003.1,-11644.9 -39003,-11645C-39003,-11645 -39002.8,-11645.5 -39002.5,-11646.1L-39002.1,-11647.1L-39003.1,-11647.5C-39003.7,-11647.6 -39004.3,-11647.9 -39004.4,-11648C-39004.8,-11648.4 -39005.7,-11648.6 -39007.9,-11649C-39010.6,-11649.6 -39011.4,-11649.6 -39020.1,-11649.8C-39028,-11650 -39029.8,-11650.1 -39030.9,-11650.6C-39031.2,-11650.8 -39031.8,-11651 -39032.2,-11651.1C-39033.4,-11651.5 -39035.4,-11652.5 -39036.2,-11653.2C-39038.8,-11655.3 -39041.6,-11658.8 -39040.7,-11658.8C-39040.6,-11658.8 -39040.5,-11658.7 -39040.5,-11658.6C-39040.5,-11658.2 -39036.6,-11656.8 -39034.2,-11656.3C-39033.6,-11656.2 -39032.8,-11656 -39032.5,-11655.9C-39031.7,-11655.5 -39028,-11655.2 -39021.5,-11655.1C-39015.5,-11655 -39011.2,-11654.8 -39010.5,-11654.5C-39007.1,-11653 -39006.1,-11652.4 -39003.4,-11650.1C-39002.7,-11649.5 -39002,-11649.1 -39001.9,-11649.1C-39001.8,-11649.1 -39001.7,-11648.9 -39001.6,-11648.8C-39001.4,-11648.5 -39001.3,-11648.6 -39000.8,-11649.3C-39000.2,-11650.2 -39000.2,-11650.2 -39000.5,-11650.8C-39000.9,-11651.5 -39002.3,-11653.4 -39003.6,-11654.7C-39004.1,-11655.2 -39004.4,-11655.7 -39004.4,-11655.8C-39004.4,-11656.1 -39008.4,-11659.4 -39009.6,-11660.2C-39010.3,-11660.6 -39010.9,-11661 -39010.9,-11661.1C-39010.8,-11661.2 -39011.2,-11661.4 -39011.6,-11661.5C-39012.1,-11661.7 -39012.4,-11661.9 -39012.4,-11662C-39012.2,-11662.2 -39010.9,-11662.1 -39009.3,-11661.8C-39007.2,-11661.5 -39006.8,-11661.4 -39006.5,-11661.1C-39006.3,-11661 -39005.9,-11660.7 -39005.5,-11660.5C-39004.2,-11659.9 -39002.8,-11659 -39002.2,-11658.4C-39001.6,-11657.8 -38999.3,-11656.2 -38999,-11656.2C-38998.9,-11656.2 -38998.6,-11656 -38998.5,-11655.9C-38998.1,-11655.5 -38995.4,-11655 -38994.7,-11655.2C-38994.3,-11655.3 -38993.5,-11655.6 -38992.9,-11655.9C-38992.2,-11656.3 -38991,-11656.7 -38990.1,-11656.9C-38988.6,-11657.3 -38987.5,-11657.9 -38987,-11658.5C-38986.9,-11658.6 -38986.5,-11658.9 -38986,-11659.1L-38985.3,-11659.6L-38984.2,-11658.8C-38983.6,-11658.4 -38982.8,-11657.9 -38982.4,-11657.6C-38981.9,-11657.3 -38981.5,-11657.1 -38981.3,-11657.1C-38980.8,-11657.1 -38977.8,-11656 -38977,-11655.5C-38976.4,-11655.2 -38976.1,-11655.2 -38974.7,-11655.3C-38973.3,-11655.4 -38972.9,-11655.5 -38971.7,-11656.1C-38969.9,-11657 -38968.9,-11657.7 -38967.8,-11658.8C-38967.3,-11659.2 -38966.7,-11659.8 -38966.3,-11659.9C-38966,-11660.1 -38965.4,-11660.4 -38965,-11660.5C-38964.6,-11660.7 -38964.1,-11661 -38963.9,-11661.1C-38963.1,-11661.7 -38958.2,-11662.4 -38957.9,-11662C-38957.8,-11661.9 -38958,-11661.7 -38958.4,-11661.6C-38958.7,-11661.6 -38959.3,-11661.3 -38959.7,-11661C-38960,-11660.7 -38960.7,-11660.3 -38961.2,-11660C-38963,-11659.1 -38968.4,-11653.5 -38969.9,-11650.9L-38970.4,-11650L-38969.9,-11649.2C-38969.3,-11648.3 -38969.3,-11648.3 -38969,-11648.6C-38968.8,-11648.8 -38968.3,-11649.3 -38967.8,-11649.7C-38967.3,-11650.1 -38966.7,-11650.6 -38966.4,-11650.9C-38965.8,-11651.4 -38964.1,-11652.4 -38963.7,-11652.4C-38963.5,-11652.4 -38963.4,-11652.5 -38963.4,-11652.6C-38963.4,-11652.8 -38961.9,-11653.8 -38960.8,-11654.1C-38958.9,-11654.8 -38956.8,-11655 -38949.3,-11655.1C-38942.4,-11655.2 -38938.3,-11655.5 -38937.7,-11656C-38937.6,-11656 -38937.2,-11656.2 -38936.8,-11656.2C-38935.8,-11656.4 -38931.4,-11657.8 -38930.5,-11658.2C-38929.8,-11658.6 -38929.8,-11658.6 -38929.8,-11658.3C-38929.8,-11657.7 -38932.6,-11654.5 -38934.1,-11653.4C-38935.7,-11652.2 -38936.5,-11651.8 -38938.3,-11651.2C-38939,-11650.9 -38939.6,-11650.7 -38939.8,-11650.6C-38940.2,-11650.2 -38943.2,-11650 -38950.9,-11649.8C-38958.4,-11649.7 -38959.2,-11649.6 -38961.7,-11649.2C-38963.1,-11648.9 -38964.5,-11648.6 -38964.8,-11648.5C-38965.1,-11648.4 -38965.5,-11648.3 -38965.7,-11648.3C-38966,-11648.3 -38966.2,-11648.2 -38966.1,-11648.1C-38966.1,-11647.9 -38966.3,-11647.8 -38966.7,-11647.8C-38967,-11647.8 -38967.5,-11647.6 -38967.9,-11647.4C-38968.2,-11647.2 -38968.5,-11647.1 -38968.6,-11647.1C-38968.6,-11647.1 -38968.4,-11646.6 -38968.2,-11646C-38967.7,-11644.8 -38967.6,-11644.7 -38966.5,-11645.3C-38964.2,-11646.4 -38961,-11646.8 -38952.8,-11647C-38949.2,-11647.1 -38945.4,-11647.3 -38944,-11647.5C-38941.6,-11647.8 -38940.8,-11648 -38936.6,-11649.4C-38935.5,-11649.7 -38934.5,-11650 -38934.4,-11650C-38933.6,-11650 -38937.3,-11645.9 -38939.1,-11644.8C-38939.4,-11644.6 -38939.9,-11644.3 -38940.3,-11644.1C-38940.6,-11643.8 -38941.1,-11643.6 -38941.4,-11643.5C-38941.6,-11643.5 -38942,-11643.3 -38942.1,-11643.2C-38942.5,-11642.8 -38944.3,-11642.2 -38945.5,-11642C-38946,-11641.9 -38950.6,-11641.7 -38955.6,-11641.6C-38960.5,-11641.5 -38965.1,-11641.4 -38965.7,-11641.3L-38966.8,-11641.2L-38966.9,-11638.7C-38966.9,-11635.1 -38967.9,-11631.9 -38969.8,-11628.9C-38970.7,-11627.5 -38972.5,-11625.4 -38973.1,-11625.1C-38973.8,-11624.7 -38973.8,-11624.5 -38973.2,-11622.7C-38972.7,-11621 -38972.6,-11618.7 -38972.9,-11615C-38973.2,-11611.9 -38973.8,-11609.7 -38974.3,-11609.7C-38974.3,-11609.7 -38974.4,-11609.5 -38974.4,-11609.3C-38974.4,-11608.9 -38975,-11608.1 -38975,-11608.5C-38975,-11609.4 -38975.6,-11614.2 -38975.7,-11614.8C-38975.8,-11615.2 -38976,-11617.1 -38976.1,-11619C-38976.2,-11620.8 -38976.3,-11622.4 -38976.3,-11622.5C-38976.4,-11622.6 -38977.9,-11622 -38978.5,-11621.7C-38978.6,-11621.6 -38977.7,-11614.4 -38977.4,-11612.7C-38977.2,-11611.6 -38977,-11610.2 -38977,-11608.9C-38977,-11607.2 -38977.1,-11606.7 -38977.6,-11605.2C-38977.9,-11604.2 -38978.4,-11603.1 -38978.6,-11602.7C-38979.2,-11601.9 -38980.9,-11600.3 -38981.1,-11600.4C-38981.1,-11600.5 -38981,-11601 -38980.9,-11601.7C-38980,-11605 -38980.1,-11607.6 -38981.3,-11613C-38981.6,-11614.4 -38981.7,-11615.5 -38981.7,-11617.8L-38981.7,-11620.7L-38982.5,-11620.6C-38982.9,-11620.5 -38983.3,-11620.4 -38983.4,-11620.3C-38983.5,-11620.2 -38983.5,-11618.8 -38983.5,-11617.1C-38983.4,-11615.4 -38983.3,-11612.1 -38983.3,-11609.7C-38983.2,-11607.3 -38983,-11604.2 -38982.9,-11602.9C-38982.5,-11599.7 -38982.7,-11597.8 -38983.4,-11595.7C-38983.8,-11594.8 -38984.3,-11593.3 -38984.6,-11592.4C-38985.3,-11590.1 -38985.4,-11589.9 -38985.5,-11590.3L-38985.5,-11590.3ZM-38991.5,-11625.5C-38992,-11626.2 -38992.6,-11627.2 -38992.9,-11627.8L-38993.4,-11628.9L-38997.4,-11628.9L-38996.6,-11628C-38996.1,-11627.6 -38995.4,-11626.9 -38994.8,-11626.5C-38994,-11625.9 -38991.1,-11624.3 -38990.8,-11624.2C-38990.7,-11624.2 -38991,-11624.8 -38991.5,-11625.5ZM-38978.8,-11624.7C-38977.2,-11625.5 -38975.5,-11626.8 -38974.4,-11627.9L-38973.4,-11628.9L-38977.3,-11628.9L-38977.9,-11627.7C-38978.3,-11627 -38978.9,-11625.9 -38979.4,-11625.3C-38979.8,-11624.7 -38980.1,-11624.2 -38980,-11624.2C-38979.9,-11624.2 -38979.4,-11624.5 -38978.8,-11624.7L-38978.8,-11624.7ZM-38986.9,-11626.8L-38986.9,-11628.9L-38988.5,-11628.9C-38989.4,-11628.9 -38990.1,-11628.8 -38990.1,-11628.8C-38990.1,-11628.4 -38987.3,-11624.6 -38987,-11624.6C-38986.9,-11624.6 -38986.9,-11625.6 -38986.9,-11626.8L-38986.9,-11626.8ZM-38982.1,-11626.6C-38981.7,-11627.1 -38981.2,-11627.8 -38981,-11628.2L-38980.5,-11628.9L-38983.9,-11628.9L-38983.9,-11624.5L-38983.3,-11625.1C-38983,-11625.4 -38982.4,-11626.1 -38982.1,-11626.6ZM-38975.9,-11631.4C-38976,-11631.6 -38976.1,-11631.7 -38976.2,-11631.7C-38976.2,-11631.7 -38976.3,-11631.6 -38976.3,-11631.4C-38976.4,-11631.2 -38976.3,-11631.1 -38976.1,-11631.1C-38975.7,-11631.1 -38975.7,-11631.2 -38975.9,-11631.4ZM-38994.8,-11632.3C-38994.9,-11632.5 -38995.1,-11633.8 -38995.3,-11635.1L-38995.7,-11637.5L-39000.9,-11637.5L-39000.9,-11637.1C-39000.9,-11636.4 -39000.2,-11633.9 -38999.8,-11632.8L-38999.4,-11631.9L-38997,-11631.9C-38994.7,-11631.9 -38994.7,-11631.9 -38994.8,-11632.3ZM-38986.9,-11634.7L-38986.8,-11637.5L-38989.8,-11637.5C-38992.7,-11637.5 -38992.7,-11637.5 -38992.7,-11637.1C-38992.7,-11636.3 -38992.3,-11634.4 -38991.9,-11633.1L-38991.6,-11631.9L-38986.9,-11631.9L-38986.9,-11634.7ZM-38978.7,-11633.5C-38978.5,-11634.3 -38978.2,-11635.6 -38978.2,-11636.3L-38978,-11637.7L-38983.9,-11637.7L-38983.9,-11631.9L-38981.5,-11631.9L-38979.2,-11632L-38978.7,-11633.5ZM-38971,-11632.7C-38970.7,-11633.5 -38970.1,-11635.7 -38969.8,-11636.9L-38969.7,-11637.5L-38975.1,-11637.5L-38975.2,-11636.3C-38975.3,-11635.2 -38975.8,-11633 -38976,-11632.2C-38976.1,-11631.9 -38976,-11631.9 -38973.7,-11631.9L-38971.4,-11631.9L-38971,-11632.7ZM-39000.7,-11640.3C-39000.7,-11640.4 -38999.8,-11640.5 -38998.2,-11640.5L-38995.7,-11640.5L-38995.5,-11642.1C-38995.4,-11643 -38995.1,-11644.3 -38994.9,-11645L-38994.6,-11646.3L-38996.3,-11646.2C-38997.2,-11646.1 -38998.3,-11646.1 -38998.7,-11646.1C-38999.3,-11646.1 -38999.4,-11646 -38999.8,-11645.1C-39000.5,-11643.1 -39001.2,-11640.1 -39000.9,-11640.1C-39000.8,-11640.1 -39000.7,-11640.2 -39000.7,-11640.3ZM-38989.5,-11640.5L-38986.7,-11640.5L-38986.8,-11640.9C-38986.9,-11641.1 -38986.9,-11642.4 -38986.9,-11643.7L-38986.9,-11646.1L-38991.6,-11646.1L-38991.9,-11644.9C-38992.4,-11643.3 -38992.8,-11640.8 -38992.6,-11640.4C-38992.5,-11640.1 -38992.4,-11640.1 -38992.4,-11640.2C-38992.3,-11640.4 -38991.6,-11640.5 -38989.5,-11640.5L-38989.5,-11640.5ZM-38978.2,-11641.7C-38978.3,-11642.4 -38978.5,-11643.7 -38978.7,-11644.5L-38979.2,-11646L-38981.5,-11646L-38983.9,-11646.1L-38983.9,-11640.5L-38978.1,-11640.5L-38978.2,-11641.7ZM-38970.1,-11641.9C-38970.2,-11642.7 -38970.6,-11643.9 -38970.8,-11644.7L-38971.3,-11646L-38973.7,-11646C-38975.9,-11646.1 -38976.1,-11646.1 -38976,-11645.8C-38975.7,-11644.8 -38975.3,-11642.9 -38975.2,-11641.7L-38975.1,-11640.5L-38969.8,-11640.5L-38970.1,-11641.9ZM-38982.1,-11649.1L-38980.6,-11649.1L-38981.3,-11650.2C-38981.6,-11650.8 -38982.4,-11651.8 -38982.9,-11652.4L-38983.9,-11653.4L-38983.9,-11651C-38983.9,-11649.7 -38983.9,-11648.7 -38983.8,-11648.8C-38983.7,-11649 -38983.2,-11649.1 -38982.1,-11649.1ZM-38992.9,-11650.2C-38992.5,-11650.8 -38991.9,-11651.9 -38991.4,-11652.6C-38990.6,-11653.7 -38990.6,-11653.7 -38991.1,-11653.5C-38993.1,-11652.8 -38996.6,-11650.3 -38997.2,-11649.2C-38997.4,-11648.9 -38997.3,-11648.9 -38995.5,-11648.9L-38993.5,-11649L-38992.9,-11650.2ZM-38986.9,-11651.2L-38986.9,-11653.4L-38987.6,-11652.7C-38988.4,-11651.8 -38990.1,-11649.4 -38990.1,-11649.2C-38990.1,-11649.1 -38989.2,-11649 -38987.8,-11648.9L-38986.9,-11648.9L-38986.9,-11651.2L-38986.9,-11651.2ZM-38974.2,-11649.9C-38975.3,-11651.1 -38977.4,-11652.5 -38978.9,-11653.2C-38979.5,-11653.5 -38980.1,-11653.7 -38980.1,-11653.7C-38980.1,-11653.7 -38979.7,-11653 -38979.1,-11652.2C-38978.5,-11651.3 -38977.9,-11650.2 -38977.7,-11649.8L-38977.3,-11649.1L-38973.4,-11649.1L-38974.2,-11649.9ZM-39007.8,-11655.4C-39007.8,-11655.8 -39011.4,-11657 -39014.2,-11657.5C-39014.8,-11657.5 -39018.6,-11657.6 -39022.8,-11657.6C-39030.7,-11657.6 -39034.5,-11657.9 -39035.8,-11658.5C-39036.2,-11658.6 -39037.2,-11659 -39038.1,-11659.4C-39039.1,-11659.8 -39040.1,-11660.3 -39040.4,-11660.6C-39040.7,-11660.9 -39041.4,-11661.4 -39041.9,-11661.8C-39042.5,-11662.2 -39043.1,-11662.8 -39043.4,-11663.2C-39043.7,-11663.6 -39044.2,-11664.2 -39044.6,-11664.6C-39046,-11666.2 -39046.1,-11666.8 -39044.8,-11666.1C-39044.2,-11665.7 -39041.2,-11664.7 -39040.1,-11664.5C-39039.7,-11664.4 -39038.9,-11664.2 -39038.3,-11664.1C-39037.7,-11663.9 -39036.6,-11663.8 -39035.8,-11663.7C-39035,-11663.6 -39034.3,-11663.5 -39034.1,-11663.4C-39034,-11663.2 -39031.8,-11663.1 -39027.3,-11663C-39023.7,-11663 -39020.4,-11662.8 -39019.9,-11662.8C-39018.1,-11662.5 -39015.1,-11661.5 -39014.2,-11660.9C-39013.9,-11660.7 -39013.5,-11660.4 -39013.2,-11660.3C-39012.1,-11659.9 -39010.5,-11658.8 -39008.9,-11657.3C-39007.3,-11655.7 -39007,-11655.2 -39007.5,-11655.2C-39007.7,-11655.2 -39007.8,-11655.3 -39007.8,-11655.4ZM-38963.4,-11655.4C-38963.4,-11655.7 -38961.8,-11657.4 -38960.3,-11658.5C-38959.1,-11659.4 -38957.4,-11660.4 -38956.3,-11660.8C-38955.8,-11661 -38955.2,-11661.4 -38955,-11661.6C-38954.9,-11661.6 -38954.3,-11661.9 -38953.5,-11662.1C-38951.7,-11662.6 -38949.2,-11662.8 -38942.1,-11663.1C-38934,-11663.5 -38929.5,-11664.3 -38926.3,-11665.8C-38924.6,-11666.6 -38924.5,-11666.2 -38926.1,-11664.5C-38927.4,-11662.9 -38928.5,-11661.8 -38928.7,-11661.7C-38928.8,-11661.7 -38929.2,-11661.4 -38929.7,-11661C-38930.5,-11660.2 -38933.6,-11658.8 -38934.3,-11658.8C-38934.6,-11658.8 -38934.8,-11658.7 -38934.9,-11658.6C-38934.9,-11658.4 -38935.5,-11658.2 -38936.1,-11658.1C-38937.1,-11657.8 -38939.3,-11657.7 -38947,-11657.7C-38952.3,-11657.6 -38956.7,-11657.5 -38956.8,-11657.4C-38956.9,-11657.3 -38957.7,-11657.1 -38958.5,-11657C-38960.3,-11656.6 -38961.7,-11656.2 -38962.2,-11655.7C-38962.4,-11655.5 -38962.6,-11655.4 -38962.7,-11655.4C-38962.7,-11655.4 -38962.9,-11655.4 -38963.1,-11655.3C-38963.3,-11655.2 -38963.4,-11655.3 -38963.4,-11655.4ZM-38990.7,-11659C-38990.2,-11666.7 -38990,-11668 -38988.5,-11670.2C-38987.6,-11671.6 -38986.8,-11672.3 -38985.5,-11672.8C-38982.6,-11673.9 -38978.3,-11672.8 -38976.6,-11670.5C-38975.7,-11669.3 -38975.9,-11668.3 -38977.1,-11668.3C-38977.8,-11668.3 -38979.1,-11667.8 -38979.2,-11667.6C-38979.3,-11667.2 -38978.9,-11667.1 -38976.8,-11666.9C-38974.4,-11666.6 -38973.1,-11666.2 -38973.2,-11666C-38973.2,-11665.8 -38974.1,-11665.7 -38975.2,-11665.6C-38977,-11665.5 -38977.3,-11665.4 -38978.1,-11665C-38979.4,-11664.2 -38979.7,-11663.5 -38979.9,-11661.9C-38979.9,-11661.1 -38979.9,-11659.9 -38979.8,-11659.3C-38979.7,-11658.6 -38979.7,-11658.1 -38979.7,-11658.1C-38979.8,-11658 -38980.2,-11658.3 -38980.8,-11658.8C-38981.3,-11659.2 -38982.1,-11659.7 -38982.6,-11660C-38983.1,-11660.2 -38983.7,-11660.6 -38983.9,-11660.8C-38984.4,-11661.4 -38985.4,-11661.8 -38985.4,-11661.6C-38985.5,-11661.5 -38987,-11660.4 -38988.3,-11659.7C-38988.7,-11659.5 -38989.4,-11659 -38989.8,-11658.6C-38990.3,-11658.3 -38990.6,-11658 -38990.7,-11658C-38990.7,-11658 -38990.7,-11658.5 -38990.7,-11659L-38990.7,-11659ZM-38972.5,-11665.6C-38972.5,-11665.8 -38972.6,-11666.1 -38972.8,-11666.3C-38973.1,-11666.7 -38974.9,-11667.2 -38976.1,-11667.2C-38976.7,-11667.2 -38977.3,-11667.3 -38977.6,-11667.3L-38978,-11667.5L-38977.5,-11667.7C-38977.2,-11667.8 -38976.6,-11668 -38976.2,-11668C-38975.5,-11668.1 -38975.5,-11668.2 -38975.5,-11668.9C-38975.5,-11669.4 -38975.6,-11669.9 -38975.8,-11670.1C-38976.4,-11670.9 -38976,-11670.9 -38974.3,-11670.1C-38973.1,-11669.5 -38972.9,-11669.4 -38972.6,-11668.5C-38972,-11667.3 -38971.9,-11666.4 -38972,-11665.8C-38972.2,-11665.2 -38972.5,-11665.1 -38972.5,-11665.6L-38972.5,-11665.6Z" style="fill:rgb(254,255,254);fill-rule:nonzero;"/>
        </g>
        <g transform="matrix(1,0,0,1,-8.4437,0)">
            <g>
                <g transform="matrix(1,0,0,1,123.635,-5.05495)">
                    <path d="M994.432,2238.88L1000.03,2256.11L1018.15,2256.11L1003.49,2266.75L1009.09,2283.98L994.432,2273.34L979.776,2283.98L985.374,2266.75L970.718,2256.11L988.834,2256.11L994.432,2238.88Z" style="fill:white;"/>
                </g>
                <g transform="matrix(1,0,0,1,27.6606,-5.05495)">
                    <path d="M994.432,2238.88L1000.03,2256.11L1018.15,2256.11L1003.49,2266.75L1009.09,2283.98L994.432,2273.34L979.776,2283.98L985.374,2266.75L970.718,2256.11L988.834,2256.11L994.432,2238.88Z" style="fill:white;"/>
                </g>
                <g transform="matrix(1,0,0,1,-68.3137,-5.05495)">
                    <path d="M994.432,2238.88L1000.03,2256.11L1018.15,2256.11L1003.49,2266.75L1009.09,2283.98L994.432,2273.34L979.776,2283.98L985.374,2266.75L970.718,2256.11L988.834,2256.11L994.432,2238.88Z" style="fill:white;"/>
                </g>
                <g transform="matrix(1,0,0,1,-164.288,-5.05495)">
                    <path d="M994.432,2238.88L1000.03,2256.11L1018.15,2256.11L1003.49,2266.75L1009.09,2283.98L994.432,2273.34L979.776,2283.98L985.374,2266.75L970.718,2256.11L988.834,2256.11L994.432,2238.88Z" style="fill:white;"/>
                </g>
                <g transform="matrix(1,0,0,1,-260.262,-5.05495)">
                    <path d="M994.432,2238.88L1000.03,2256.11L1018.15,2256.11L1003.49,2266.75L1009.09,2283.98L994.432,2273.34L979.776,2283.98L985.374,2266.75L970.718,2256.11L988.834,2256.11L994.432,2238.88Z" style="fill:white;"/>
                </g>
            </g>
            <g transform="matrix(1,0,0,1,714.65,0)">
                <g transform="matrix(1,0,0,1,123.635,-5.05495)">
                    <path d="M994.432,2238.88L1000.03,2256.11L1018.15,2256.11L1003.49,2266.75L1009.09,2283.98L994.432,2273.34L979.776,2283.98L985.374,2266.75L970.718,2256.11L988.834,2256.11L994.432,2238.88Z" style="fill:white;"/>
                </g>
                <g transform="matrix(1,0,0,1,27.6606,-5.05495)">
                    <path d="M994.432,2238.88L1000.03,2256.11L1018.15,2256.11L1003.49,2266.75L1009.09,2283.98L994.432,2273.34L979.776,2283.98L985.374,2266.75L970.718,2256.11L988.834,2256.11L994.432,2238.88Z" style="fill:white;"/>
                </g>
                <g transform="matrix(1,0,0,1,-68.3137,-5.05495)">
                    <path d="M994.432,2238.88L1000.03,2256.11L1018.15,2256.11L1003.49,2266.75L1009.09,2283.98L994.432,2273.34L979.776,2283.98L985.374,2266.75L970.718,2256.11L988.834,2256.11L994.432,2238.88Z" style="fill:white;"/>
                </g>
                <g transform="matrix(1,0,0,1,-164.288,-5.05495)">
                    <path d="M994.432,2238.88L1000.03,2256.11L1018.15,2256.11L1003.49,2266.75L1009.09,2283.98L994.432,2273.34L979.776,2283.98L985.374,2266.75L970.718,2256.11L988.834,2256.11L994.432,2238.88Z" style="fill:white;"/>
                </g>
                <g transform="matrix(1,0,0,1,-260.262,-5.05495)">
                    <path d="M994.432,2238.88L1000.03,2256.11L1018.15,2256.11L1003.49,2266.75L1009.09,2283.98L994.432,2273.34L979.776,2283.98L985.374,2266.75L970.718,2256.11L988.834,2256.11L994.432,2238.88Z" style="fill:white;"/>
                </g>
            </g>
        </g>
    </g>
</svg>
